<?xml version="1.0" standalone="no"?>
<!DOCTYPE svg PUBLIC "-//W3C//DTD SVG 20010904//EN"
 "http://www.w3.org/TR/2001/REC-SVG-20010904/DTD/svg10.dtd">
<svg version="1.0" xmlns="http://www.w3.org/2000/svg"
 viewBox="0 0 512.000000 512.000000"
 preserveAspectRatio="xMidYMid meet">
<g transform="translate(0.000000,512.000000) scale(0.100000,-0.100000)"
fill="#fff" stroke="none">
<path d="M1885 5100 c-245 -38 -439 -99 -655 -206 -448 -223 -781 -556 -1004
-1004 -112 -225 -185 -469 -216 -720 -14 -120 -12 -426 4 -550 122 -905 776
-1638 1660 -1860 220 -55 485 -76 723 -57 l101 8 47 -73 c202 -313 517 -530
890 -614 112 -25 391 -30 517 -9 593 98 1055 560 1153 1154 14 82 17 141 12
280 -4 154 -9 190 -35 291 -93 354 -300 641 -600 835 l-73 47 8 101 c48 592
-134 1163 -515 1617 -355 424 -872 702 -1432 770 -136 16 -447 11 -585 -10z
m670 -249 c402 -75 749 -256 1036 -541 69 -69 153 -162 187 -207 195 -258 316
-536 379 -868 17 -93 29 -473 15 -494 -8 -11 -18 -11 -63 2 -185 54 -442 67
-626 34 -581 -106 -1025 -547 -1139 -1132 -35 -180 -21 -446 33 -634 13 -45
13 -55 2 -62 -23 -15 -324 -10 -438 7 -607 88 -1114 431 -1439 971 -102 171
-192 417 -233 638 -30 159 -36 423 -15 585 31 236 89 427 193 635 290 583 852
987 1504 1079 148 22 456 15 604 -13z m1285 -2305 c182 -13 417 -104 578 -226
505 -380 612 -1098 239 -1603 -213 -289 -529 -459 -883 -474 -317 -14 -608 94
-842 311 -148 138 -275 351 -329 551 -25 92 -27 116 -27 290 -1 177 1 197 27
289 62 222 152 375 316 536 160 156 323 249 531 300 81 21 241 39 290 34 14
-2 59 -5 100 -8z"/>
<path d="M2165 4416 c-16 -7 -39 -23 -50 -36 -20 -22 -20 -38 -23 -718 l-2
-697 -344 -345 c-361 -362 -367 -369 -351 -439 13 -62 86 -103 152 -86 19 4
154 132 403 381 l375 374 3 750 2 750 -32 35 c-38 40 -88 52 -133 31z"/>
<path d="M3658 2312 c-41 -25 -58 -70 -58 -150 l0 -70 -32 -6 c-103 -20 -219
-111 -268 -209 -105 -214 -22 -461 187 -560 62 -29 79 -32 204 -38 169 -8 200
-22 243 -106 34 -67 8 -159 -56 -205 -32 -22 -41 -23 -290 -28 -240 -5 -258
-6 -285 -26 -15 -11 -34 -39 -42 -61 -13 -35 -13 -46 0 -78 26 -69 52 -80 205
-83 l134 -4 0 -68 c0 -53 5 -74 23 -101 39 -57 98 -74 157 -44 49 25 60 51 60
141 l0 82 48 12 c110 27 219 119 270 227 24 52 27 69 27 168 0 99 -3 116 -27
168 -80 170 -216 247 -438 247 -106 0 -147 15 -187 66 -27 36 -40 104 -29 148
9 37 55 87 101 107 35 16 69 19 279 19 l238 0 34 34 c29 29 34 41 34 83 0 100
-41 123 -220 123 l-130 0 0 81 c0 79 -1 82 -34 115 -28 28 -41 34 -77 34 -24
0 -56 -8 -71 -18z"/>
</g>
</svg>
