<?xml version="1.0" standalone="no"?>
<!DOCTYPE svg PUBLIC "-//W3C//DTD SVG 20010904//EN"
 "http://www.w3.org/TR/2001/REC-SVG-20010904/DTD/svg10.dtd">
<svg version="1.0" xmlns="http://www.w3.org/2000/svg"
  viewBox="0 0 512.000000 512.000000"
 preserveAspectRatio="xMidYMid meet">

<g transform="translate(0.000000,512.000000) scale(0.100000,-0.100000)"
fill="#fff" stroke="none">
<path d="M232 5100 c-18 -11 -41 -34 -52 -52 -20 -33 -20 -56 -20 -2317 0
-2280 0 -2284 20 -2317 12 -18 40 -42 64 -53 42 -21 47 -21 1407 -21 l1366 0
24 -26 c35 -39 171 -139 245 -180 87 -49 237 -101 341 -119 106 -19 303 -19
405 0 434 77 778 397 896 834 23 87 26 113 26 281 0 171 -2 193 -28 285 -69
251 -216 468 -424 625 -84 63 -243 142 -344 172 l-78 22 -2 1390 c-3 1371 -3
1391 -23 1424 -11 18 -34 42 -51 53 -31 19 -71 19 -1885 19 -1832 0 -1854 0
-1887 -20z m3528 -1564 l0 -1275 -47 -6 c-144 -19 -284 -60 -404 -121 -179
-89 -398 -307 -480 -476 l-23 -48 -372 0 c-369 0 -371 0 -405 -23 -91 -61 -91
-203 0 -264 34 -23 38 -23 355 -23 l321 0 0 -173 c1 -185 16 -278 69 -408 l24
-59 -1164 0 -1164 0 0 2075 0 2075 1645 0 1645 0 0 -1274z m235 -1611 c270
-56 511 -267 601 -524 35 -101 45 -163 45 -281 -1 -368 -259 -693 -626 -785
-95 -24 -275 -24 -370 0 -367 92 -625 417 -626 785 0 118 10 180 45 281 71
206 247 390 454 478 40 17 103 37 140 45 90 19 246 20 337 1z"/>
<path d="M1604 4351 c-21 -16 -122 -113 -224 -215 l-185 -186 -65 65 c-36 35
-78 69 -93 74 -129 49 -255 -77 -207 -206 13 -33 252 -278 294 -300 45 -24
122 -19 165 11 20 14 149 139 288 278 297 298 311 320 263 425 -26 57 -69 83
-141 83 -46 0 -63 -5 -95 -29z"/>
<path d="M2060 4029 c-125 -50 -134 -231 -15 -289 41 -20 57 -20 676 -18 l634
3 33 23 c43 31 65 77 66 133 0 62 -29 109 -84 137 l-44 22 -621 -1 c-387 0
-629 -4 -645 -10z"/>
<path d="M1635 3159 c-11 -6 -113 -104 -227 -217 l-207 -206 -75 72 c-80 76
-114 90 -183 77 -49 -9 -109 -69 -118 -118 -16 -82 -5 -101 153 -259 131 -130
151 -147 189 -153 83 -13 98 -3 387 284 319 316 336 343 286 446 -34 70 -141
108 -205 74z"/>
<path d="M2083 2820 c-83 -20 -126 -77 -121 -161 5 -65 31 -109 82 -133 32
-15 98 -16 675 -14 628 3 640 3 667 24 51 37 68 70 68 127 0 63 -26 112 -76
142 -32 19 -52 20 -648 22 -338 1 -630 -2 -647 -7z"/>
<path d="M1640 1949 c-14 -5 -118 -103 -232 -216 l-207 -207 -70 67 c-81 76
-126 94 -190 77 -104 -28 -149 -127 -101 -225 25 -53 246 -270 294 -290 44
-19 87 -19 129 -1 18 8 157 139 309 292 297 300 300 303 284 389 -17 91 -127
149 -216 114z"/>
<path d="M4280 1604 c-21 -9 -148 -127 -317 -296 l-282 -282 -144 141 c-134
131 -148 142 -191 148 -76 12 -141 -17 -171 -75 -17 -34 -20 -107 -5 -146 14
-35 361 -387 419 -425 48 -31 106 -38 158 -18 31 11 703 676 734 726 26 42 27
121 2 165 -21 38 -93 78 -138 78 -16 -1 -46 -8 -65 -16z"/>
</g>
</svg>
