<?xml version="1.0" standalone="no"?>
<!DOCTYPE svg PUBLIC "-//W3C//DTD SVG 20010904//EN"
 "http://www.w3.org/TR/2001/REC-SVG-20010904/DTD/svg10.dtd">
<svg version="1.0" xmlns="http://www.w3.org/2000/svg"
 viewBox="0 0 512.000000 512.000000"
 preserveAspectRatio="xMidYMid meet">
<g transform="translate(0.000000,512.000000) scale(0.100000,-0.100000)"
fill="#fff" stroke="none">
<path d="M2480 4400 l0 -160 80 0 80 0 0 160 0 160 -80 0 -80 0 0 -160z"/>
<path d="M1312 4047 l-62 -62 113 -113 c62 -61 117 -112 122 -112 13 0 115
102 115 115 0 6 -51 61 -113 123 l-112 112 -63 -63z"/>
<path d="M3632 3997 c-61 -62 -112 -117 -112 -122 0 -13 102 -115 115 -115 6
0 61 51 123 113 l112 112 -63 63 -62 62 -113 -113z"/>
<path d="M2337 3984 c-405 -73 -751 -362 -902 -752 -103 -267 -103 -598 1
-866 62 -161 136 -274 276 -424 151 -160 230 -304 264 -480 18 -93 18 -102 -1
-102 -8 0 -24 -9 -35 -20 -19 -19 -20 -33 -20 -267 0 -230 2 -250 20 -281 36
-59 71 -72 196 -72 l112 0 5 -28 c15 -75 123 -179 210 -203 65 -17 194 -7 246
20 62 32 128 104 148 162 l18 49 110 0 c124 0 159 13 195 72 18 31 20 51 20
281 0 234 -1 248 -20 267 -11 11 -27 20 -35 20 -19 0 -19 13 1 108 36 176 112
314 264 477 244 262 350 522 350 855 0 70 -7 165 -15 212 -85 492 -480 887
-969 973 -110 19 -332 18 -439 -1z m339 -158 c39 -3 111 -17 159 -31 354 -103
611 -360 721 -721 26 -83 28 -101 28 -274 0 -174 -1 -190 -28 -275 -57 -187
-135 -316 -289 -481 -174 -187 -266 -371 -299 -598 l-12 -86 -397 0 -396 0 -6
60 c-9 79 -39 198 -73 280 -46 113 -113 214 -231 345 -173 191 -242 309 -295
503 -18 65 -22 105 -22 252 0 192 10 251 74 403 92 222 301 436 523 537 132
60 346 105 447 94 14 -2 57 -5 96 -8z m364 -2786 l0 -160 -140 0 c-161 0 -174
-6 -185 -83 -14 -91 -73 -147 -155 -147 -82 0 -141 56 -155 147 -11 77 -24 83
-185 83 l-140 0 0 160 0 160 480 0 480 0 0 -160z"/>
<path d="M2380 3593 c-48 -18 -90 -83 -90 -137 0 -32 -5 -38 -42 -57 -24 -12
-56 -31 -71 -42 -28 -19 -31 -19 -63 -3 -19 9 -59 16 -88 16 -78 0 -106 -24
-192 -165 -67 -109 -74 -125 -74 -173 0 -64 19 -101 69 -133 l36 -22 0 -78 c1
-77 1 -77 -32 -95 -47 -25 -74 -73 -75 -133 0 -45 8 -63 74 -173 87 -144 114
-168 195 -168 30 0 67 7 83 15 27 14 32 13 104 -26 72 -39 76 -43 76 -75 0
-42 18 -80 55 -114 26 -24 30 -25 203 -28 163 -2 180 -1 210 18 43 26 72 76
72 122 0 34 4 40 43 59 23 12 55 31 70 42 28 19 31 19 63 3 19 -9 59 -16 88
-16 78 0 106 24 192 165 67 109 74 125 74 173 0 64 -19 101 -69 133 l-36 22 0
78 c0 77 0 77 33 95 48 26 72 71 72 135 -1 49 -7 65 -73 174 -86 141 -114 165
-194 165 -30 0 -67 -7 -83 -15 -27 -14 -32 -13 -104 26 -72 39 -76 43 -76 75
0 42 -18 80 -55 114 -26 25 -30 25 -203 27 -97 1 -184 -1 -192 -4z m284 -203
c8 -61 48 -111 108 -134 22 -10 59 -30 82 -46 73 -50 146 -57 213 -22 20 11
25 6 67 -66 25 -44 46 -82 46 -85 0 -4 -14 -14 -31 -22 -50 -26 -67 -80 -67
-215 0 -135 17 -189 67 -215 17 -8 31 -18 31 -22 0 -3 -21 -41 -46 -84 l-46
-79 -31 16 c-52 27 -117 21 -184 -17 -32 -19 -80 -45 -108 -59 -58 -29 -91
-74 -101 -136 l-6 -44 -99 0 -99 0 0 28 c0 34 -31 101 -56 124 -11 10 -37 25
-59 34 -22 9 -58 29 -80 44 -74 51 -138 58 -207 24 -26 -14 -27 -13 -74 67
l-47 81 24 19 c13 10 27 19 31 19 3 0 15 19 26 43 17 36 20 60 18 167 -1 103
-5 131 -21 158 -11 17 -22 32 -25 32 -3 0 -16 9 -29 19 l-24 19 47 81 48 81
31 -16 c53 -28 115 -22 182 17 33 19 82 45 110 59 58 29 91 74 101 136 l6 44
98 0 97 0 7 -50z"/>
<path d="M2433 3099 c-61 -24 -132 -89 -164 -150 -34 -66 -38 -194 -9 -272 79
-209 369 -267 530 -107 120 121 122 334 6 454 -68 69 -115 89 -221 93 -73 2
-100 -1 -142 -18z m205 -169 c130 -79 74 -280 -78 -280 -85 0 -150 65 -150
150 0 54 27 102 72 130 20 12 51 20 78 20 27 0 58 -8 78 -20z"/>
<path d="M4449 3673 c-12 -38 -24 -73 -26 -79 -3 -7 40 -27 108 -49 84 -28
108 -40 96 -47 -9 -5 -161 -76 -339 -159 -177 -82 -323 -151 -325 -153 -2 -1
13 -37 32 -79 l35 -77 53 24 c28 13 184 85 346 160 161 75 295 135 297 133 2
-2 -12 -50 -31 -107 -19 -57 -35 -109 -35 -116 0 -7 30 -22 68 -35 37 -12 72
-24 78 -26 15 -6 154 409 154 460 0 23 -7 44 -19 56 -16 16 -427 161 -458 161
-6 0 -21 -30 -34 -67z"/>
<path d="M800 1715 c-322 -151 -589 -276 -593 -277 -5 -2 8 -39 27 -82 23 -50
40 -76 48 -73 47 19 1185 551 1191 556 12 11 -56 151 -73 150 -8 0 -278 -124
-600 -274z"/>
</g>
</svg>
