<?xml version="1.0" standalone="no"?>
<!DOCTYPE svg PUBLIC "-//W3C//DTD SVG 20010904//EN"
 "http://www.w3.org/TR/2001/REC-SVG-20010904/DTD/svg10.dtd">
<svg version="1.0" xmlns="http://www.w3.org/2000/svg"
  viewBox="0 0 512.000000 512.000000"
 preserveAspectRatio="xMidYMid meet">

<g transform="translate(0.000000,512.000000) scale(0.100000,-0.100000)"
fill="#fff" stroke="none">
<path d="M1587 4952 l-167 -167 0 -123 0 -122 80 0 80 0 0 83 0 82 128 128
127 127 740 0 740 0 123 -123 122 -122 0 -485 0 -485 -85 85 -85 85 0 361 0
361 -96 101 -96 102 -637 0 -636 0 -103 -103 -102 -102 0 -370 0 -371 -70 -69
-70 -69 0 317 0 317 -80 0 -80 0 0 -397 0 -398 -387 -387 -387 -387 13 -113
c70 -611 262 -1165 560 -1609 133 -198 238 -324 402 -484 151 -147 252 -228
429 -346 139 -93 476 -269 514 -269 31 0 263 116 391 195 693 428 1218 1147
1425 1948 57 224 100 493 100 632 l0 50 -380 380 -380 380 0 605 0 605 -163
163 -162 162 -820 0 -820 0 -168 -168z m1592 -331 l51 -59 0 -306 0 -306 -675
0 -675 0 0 307 0 307 57 58 57 58 567 0 567 0 51 -59z m621 -1346 l514 -514
-12 -113 c-114 -1024 -750 -1973 -1620 -2419 l-113 -58 -77 35 c-42 19 -133
69 -202 110 -666 397 -1180 1101 -1380 1889 -42 166 -76 351 -86 476 l-7 81
514 514 514 514 720 0 720 0 515 -515z"/>
<path d="M1610 3325 l-315 -315 58 -57 57 -58 293 293 292 292 593 0 592 0 0
80 0 80 -628 0 -627 0 -315 -315z"/>
<path d="M1135 2850 l-60 -60 58 -57 57 -58 55 55 c30 30 55 59 55 65 0 6 -24
34 -53 63 l-53 52 -59 -60z"/>
<path d="M2390 2781 c-230 -49 -443 -210 -552 -417 -63 -119 -88 -214 -95
-349 -23 -477 346 -865 822 -865 400 0 737 279 812 674 20 105 13 273 -16 374
-39 133 -105 247 -205 350 -197 204 -485 292 -766 233z m379 -177 c200 -66
362 -228 428 -428 22 -68 27 -100 27 -196 2 -197 -53 -329 -194 -471 -70 -70
-102 -94 -172 -128 -195 -95 -391 -95 -586 0 -70 34 -103 58 -173 128 -70 70
-94 103 -127 171 -191 396 30 847 463 946 92 21 232 12 334 -22z"/>
<path d="M2337 2412 l-97 -97 0 -58 0 -57 -70 0 -70 0 0 -80 0 -80 70 0 70 0
0 -65 0 -65 -70 0 -70 0 0 -80 0 -80 70 0 70 0 0 -58 0 -57 98 -98 97 -97 185
0 185 0 88 88 87 88 -58 57 -58 57 -64 -65 -64 -65 -116 0 -116 0 -52 53 c-31
32 -52 61 -52 75 0 22 2 22 145 22 l145 0 0 80 0 80 -145 0 -145 0 0 65 0 65
145 0 145 0 0 80 0 80 -145 0 c-144 0 -145 0 -145 23 0 14 20 42 53 75 l53 52
109 0 109 0 68 -67 68 -67 60 59 60 59 -87 88 -88 88 -185 0 -185 0 -98 -98z"/>
<path d="M3955 2448 c-2 -7 -6 -35 -10 -63 -4 -27 -9 -59 -11 -71 -5 -19 1
-22 71 -34 41 -7 79 -10 82 -6 4 4 12 42 18 84 13 88 17 83 -88 96 -42 4 -59
3 -62 -6z"/>
<path d="M3877 2074 c-147 -511 -463 -974 -904 -1325 -88 -70 -282 -201 -379
-255 -35 -20 -64 -40 -64 -45 0 -13 58 -126 67 -132 5 -3 49 19 100 48 654
379 1126 959 1329 1634 20 67 34 124 31 127 -3 3 -38 14 -79 25 -40 10 -73 19
-73 19 0 0 -12 -43 -28 -96z"/>
<path d="M290 1440 l0 -80 80 0 80 0 0 80 0 80 -80 0 -80 0 0 -80z"/>
<path d="M4670 1440 l0 -80 80 0 80 0 0 80 0 80 -80 0 -80 0 0 -80z"/>
<path d="M520 915 l0 -75 -80 0 -80 0 0 -80 0 -80 80 0 80 0 0 -75 0 -75 80 0
80 0 0 75 0 75 75 0 75 0 0 80 0 80 -75 0 -75 0 0 75 0 75 -80 0 -80 0 0 -75z"/>
<path d="M4440 915 l0 -75 -75 0 -75 0 0 -80 0 -80 75 0 75 0 0 -75 0 -75 80
0 80 0 0 75 0 75 80 0 80 0 0 80 0 80 -80 0 -80 0 0 75 0 75 -80 0 -80 0 0
-75z"/>
</g>
</svg>
